<?xml version="1.0" encoding="UTF-8"?><svg id="Layer_1" xmlns="http://www.w3.org/2000/svg" viewBox="0 0 75.06 75.06"><defs><style>.cls-1{fill:#fff;}</style></defs><path class="cls-1" d="m33.39,45.32c1.59,1.62,8.13,8.2,12.94,10.05s1.47,1.59,2.18,3.15c.07.16-5.33-3.37-9.73-6.98-2.36-1.93-4.34-3.78-4.34-3.78,0,0-2.22-2.11-2.08-1.78,1.48,3.55.49,9.18.49,9.18-5.2-4.91-7.34,2.59-7.34,2.59-2.15-1.65-7.37,3.22-7.37,3.22.72-2.5-1.48-2.89-1.48-2.89,3.86-11.54-7.11-4.34-7.11-4.34.86-6.91-4.57-4.89-4.57-4.89-.22-2.85-3.48-3.74-3.48-3.74,0,0,1.14-.17,2.24-.57,1.62-.6,2.81-1.31,2.04-1.61-.34-.13.77-.41,2.92-.97,1.48-.39,1.92-.62,3.4-1.59,4.52-2.95-4.95-8.8-4.95-8.8,5.74-1.7-.94-9.5-.94-9.5,10.32,3.96,8.85.9,8.85.9,9.58,7.22,9.17-1.87,9.17-1.87,2.04.12,1.92-7.98,1.92-7.98,1.4,5.62,3.6,3.43,3.6,3.43-.8,5.02,5.18,5.54,5.18,5.54,1.06,15.5,5.5,5.23,5.5,5.23.89,1.61,4.7,1.1,4.7,1.1-3.3,4.31-.91,8.17-.91,8.17-8.04,4.46-3.41,7.46-3.41,7.46-2.9,1.33-3.94,1.22-5.35,1.27,0,0-2.23-.2-2.04,0Z"/><path class="cls-1" d="m50.96,48.63c-1.36.87-6.96,4.41-10.6,4.93-3.64.52-1.28.87-2.02,1.85-.08.1,4.25-1.5,7.88-3.31,1.95-.97,3.62-1.94,3.62-1.94,0,0,1.88-1.12,1.73-.91-1.59,2.23-1.8,6.31-1.8,6.31,4.4-2.59,4.7,2.97,4.7,2.97,1.76-.81,4.61,3.41,4.61,3.41-.1-1.85,1.49-1.78,1.49-1.78-.85-8.65,5.64-1.89,5.64-1.89.5-4.95,3.95-2.67,3.95-2.67.61-1.95,3.02-2.05,3.02-2.05,0,0-.77-.3-1.47-.75-1.03-.67-1.75-1.36-1.16-1.44.26-.04-.47-.41-1.88-1.14-.97-.5-1.24-.74-2.12-1.65-2.68-2.77,4.84-5.34,4.84-5.34-3.72-2.09,2.16-6.46,2.16-6.46-7.81,1.12-6.3-.78-6.3-.78-7.81,3.5-6.08-2.76-6.08-2.76-1.44-.24-.07-5.85-.07-5.85-1.87,3.69-3.05,1.81-3.05,1.81-.24,3.62-4.48,3.03-4.48,3.03-3.2,10.61-4.66,2.77-4.66,2.77-.88.98-3.44.02-3.44.02,1.61,3.52-.67,5.83-.67,5.83,4.88,4.38,1.19,5.73,1.19,5.73,1.81,1.39,2.54,1.48,3.52,1.73,0,0,1.59.21,1.42.32Z"/></svg>